<svg xmlns="http://www.w3.org/2000/svg" width="343.633" height="301.947" viewBox="0 0 343.633 301.947">
  <g id="Group_1" data-name="Group 1" transform="translate(-313.218 -668.493)">
    <g id="writingmatic_logo" data-name="writingmatic logo" transform="translate(313.218 668.493)">
      <path id="Path_1" data-name="Path 1" d="M294.716,621.2c-19.511,14.544-25.04,40.135-25.04,40.135s26.1,2.009,45.615-12.535,25.04-40.135,25.04-40.135S314.227,606.659,294.716,621.2Z" transform="translate(-217.679 -389.553)" fill="#f1f1f1"/>
      <path id="Path_2" data-name="Path 2" d="M302.844,628.032c-9.377,22.456-32.862,34.028-32.862,34.028s-8.281-24.837,1.1-47.293,32.862-34.028,32.862-34.028S312.221,605.576,302.844,628.032Z" transform="translate(-174.177 -389.553)" fill="#f1f1f1"/>
      <path id="Path_3" data-name="Path 3" d="M864.187,563.114h0a194.657,194.657,0,0,1-1.633-42.2l1.633-23.307h0C855.187,515.52,857.221,539.09,864.187,563.114Z" transform="translate(-588.312 -347.483)" fill="#cacaca"/>
      <path id="Path_4" data-name="Path 4" d="M871.205,567.013h0a143.086,143.086,0,0,1-.786-25.116l.786-13.873h0C866.875,538.683,867.854,552.713,871.205,567.013Z" transform="translate(-605.905 -351.285)" fill="#cacaca"/>
      <path id="Path_5" data-name="Path 5" d="M902.4,584.17v7.8a2.351,2.351,0,0,1-2.339,2.339h-3.9a.777.777,0,0,0-.78.78V659.03a2.351,2.351,0,0,1-2.339,2.339H845.476a2.341,2.341,0,0,1-2.339-2.339V595.087a.782.782,0,0,0-.78-.78h-4.679a2.341,2.341,0,0,1-2.339-2.339v-7.8a2.336,2.336,0,0,1,2.339-2.339h62.383A2.346,2.346,0,0,1,902.4,584.17Z" transform="translate(-610.706 -389.553)" fill="#f2f2f2"/>
      <rect id="Rectangle_1" data-name="Rectangle 1" width="52.246" height="2.339" transform="translate(238.876 231.818)" fill="#e6e6e6"/>
      <path id="Path_6" data-name="Path 6" d="M895.383,630.369c-17.483,7.235-35.156,7.315-53.026,0V613.888a83.274,83.274,0,0,1,53.026,0Z" transform="translate(-604.2 -386.186)" fill="#e6e6e6"/>
      <ellipse id="Ellipse_276" data-name="Ellipse 276" cx="65.328" cy="48.993" rx="65.328" ry="48.993" transform="translate(112.491 24.323)" fill="#feb8b8"/>
      <path id="Path_1461" data-name="Path 1461" d="M663.232,234.079c-10.181-11.474-26.118-19.929-44.743-23.737l-8.36,4.234v-5.5a103.91,103.91,0,0,0-13.522-.547l-7.213,4.529v-4.153c-21.59,1.862-41.074,9.905-53.737,22.184-15.663,15.672-18.307,37.474-2.9,53.272,4.229-9.02,9.362-17.484,13.592-26.5a55.3,55.3,0,0,0,10.021.034l5.145-8.332,1.438,7.98c15.948-.964,39.6-3.081,54.721-5.021L616.2,246.4l8.8,5.087c4.632-.74,7.382-1.411,7.155-1.924,11.244,12.581,25.006,20.616,36.249,33.2C672.673,265.018,677.587,250.268,663.232,234.079Z" transform="translate(-419.9 -208.5)" fill="#2f2e41"/>
      <path id="Path_7" data-name="Path 7" d="M663.21,450.1c-1.681-8.839-3.414-17.848-8.114-25.81-3.089-5.216-7.992-10.186-14.6-11.217a15.854,15.854,0,0,1-3.8-.769c-1.937-.815-27.961-13.8-32.1-16.064-3.552-1.942-9.158-5.537-11.985-5.537-2.844-.055-13.749,2.164-56.312-.744a164.25,164.25,0,0,0-20.74,8.914c-.137-.079-44.177,20.593-45.832,20.539a10.007,10.007,0,0,0-7.842,3.847c-1.8,2.208-2.638,4.942-3.52,7.585,9.619,18.725,18.42,37.474,28.04,56.2a4.335,4.335,0,0,1,.7,2.306,5.326,5.326,0,0,1-1.2,2.306c-4.718,6.624-4.568,14.956-4.052,22.741s1.153,16.009-2.827,22.987c-1.083,1.916-2.491,3.67-3.52,5.585-2.411,4.339-3.283,18.218-1.874,22.88l176.463,4.419C646.3,561.151,663.21,450.1,663.21,450.1Z" transform="translate(-386.961 -271.64)" fill="#6c63ff"/>
      <path id="Path_1421" data-name="Path 1421" d="M436.271,549.141a35.089,35.089,0,0,0-.138,9.337l3.319,44.139c.312,4.16.618,8.31,1.04,12.46.8,8.054,1.986,16.043,3.462,24.021a4.48,4.48,0,0,0,4.734,4.16c14.608,2.863,29.7,2.748,44.61,1.968,22.75-1.176,80.953-3.4,84.509-7.679s1.484-11.2-3.153-14.657S493.209,611,493.209,611c.75-5.508,3.014-10.7,5.162-15.925,3.858-9.275,7.461-18.855,7.53-28.791s-3.973-20.383-12.761-26.075c-7.229-4.673-16.537-5.54-25.347-5.348-6.41.171-17.484-1.252-23.339,1.07C439.822,537.817,437.137,544.94,436.271,549.141Z" transform="translate(-350.885 -368.471)" fill="#fbbebe"/>
      <path id="Path_1430" data-name="Path 1430" d="M443.292,453.5a4.978,4.978,0,0,0-1.212,1.723,74.145,74.145,0,0,0-7.7,27.962,2.544,2.544,0,0,1-.355,1.354,6.261,6.261,0,0,1-.8.772,2.478,2.478,0,0,0,.361,3.775q.074.056.153.107c.9-1.507,3.059-2,4.976-2.13,9.182-.645,18.151,3.15,27.36,2.863-.65-1.995-1.584-3.911-2.114-5.93-2.343-8.963,3.5-18.722-.082-27.355a7.293,7.293,0,0,0-3.8-4.183,11.14,11.14,0,0,0-2.431-.572c-2.327-.374-6.959-1.97-9.209-1.33-.83.238-1.158.932-1.846,1.351C445.546,452.505,444.159,452.723,443.292,453.5Z" transform="translate(-298.377 -278.202)" fill="#6c63ff"/>
      <path id="Path_1421-2" data-name="Path 1421" d="M742.677,535.924c-5.931-2.315-17.151-.9-23.644-1.067-8.925-.192-18.354.673-25.678,5.334-8.9,5.677-13,16.1-12.928,26.006s3.72,19.465,7.628,28.716c2.176,5.216,4.469,10.39,5.23,15.883,0,0-77.813,8.411-82.51,11.862s-6.8,10.352-3.194,14.619,116.01,8.551,130.809,5.7a4.514,4.514,0,0,0,4.8-4.149c1.5-7.957,2.7-15.925,3.507-23.958.427-4.139.738-8.278,1.053-12.427l3.362-44.023a34.459,34.459,0,0,0-.14-9.313C750.092,544.913,747.371,537.809,742.677,535.924Z" transform="translate(-490.897 -368.471)" fill="#fbbebe"/>
      <path id="Path_1430-2" data-name="Path 1430" d="M718.96,452.759c-1.048-.656-1.546-1.741-2.81-2.114-3.424-1-10.475,1.5-14.017,2.08a16.569,16.569,0,0,0-3.7.894c-2.868,1.185-4.688,3.842-5.778,6.545-5.454,13.508,3.442,28.778-.125,42.8-.806,3.158-2.229,6.157-3.218,9.278,14.017.448,27.668-5.49,41.643-4.48,2.919.2,6.2.976,7.574,3.333q.119-.08.233-.168a3.946,3.946,0,0,0,.549-5.907,9.653,9.653,0,0,1-1.222-1.207,4.067,4.067,0,0,1-.54-2.119,118.536,118.536,0,0,0-11.722-43.751,7.793,7.793,0,0,0-1.845-2.7C722.663,454.029,720.552,453.688,718.96,452.759Z" transform="translate(-513.418 -299.998)" fill="#6c63ff"/>
      <circle id="Ellipse_1" data-name="Ellipse 1" cx="19.073" cy="19.073" r="19.073" transform="translate(146.059 238.684)" fill="#fbbebe"/>
      <circle id="Ellipse_2" data-name="Ellipse 2" cx="19.073" cy="19.073" r="19.073" transform="translate(161.409 238.684)" fill="#fbbebe"/>
      <path id="Path_8" data-name="Path 8" d="M596.861,608.747H473.438c-3,0-5.432-2.854-5.435-6.37V514.615c0-3.517,2.435-6.366,5.435-6.37H596.861c3,0,5.432,2.854,5.435,6.37v87.762C602.292,605.893,599.861,608.743,596.861,608.747Z" transform="translate(-352.843 -308.011)" fill="#3f3d56"/>
      <circle id="Ellipse_263" data-name="Ellipse 263" cx="7.635" cy="7.635" r="7.635" transform="translate(167.955 226.724)" fill="#fff"/>
      <path id="Path_9" data-name="Path 9" d="M343.633,449.724H0v27H20.326V483h302.99v-6.276h20.318Z" transform="translate(0 -181.053)" fill="#f1f1f1"/>
      <path id="Path_10" data-name="Path 10" d="M537.556,334.049h0C526.2,334.049,517,324.1,517,311.82h0V300.7c0-12.277,9.2-22.229,20.559-22.229h0v55.574Z" transform="translate(-424.671 -247.464)" fill="#6c63ff"/>
      <path id="Path_11" data-name="Path 11" d="M668.779,278.476h0c11.355,0,20.559,9.952,20.559,22.229V311.82c0,12.277-9.2,22.229-20.559,22.229h0Z" transform="translate(-426.682 -246.464)" fill="#6c63ff"/>
      <path id="Path_12" data-name="Path 12" d="M670.808,264.189h-3.08c0-24.511-31.777-44.452-70.836-44.452s-70.836,19.941-70.836,44.452h-3.08c0-25.576,33.158-46.384,73.916-46.384S670.808,238.612,670.808,264.189Z" transform="translate(-420.405 -217.804)" fill="#6c63ff"/>
    </g>
  </g>
</svg>
